{"title":"Laid.to.Rest.2009.DVDRIP.XviD-ZEKTORM","uid":5154928,"size":735452828,"categoryP":"video","categoryS":"movies","magnet":"?xt=urn:btih:db12ae20d695063aa3cd01a2cb7d3f6c6b46d8e3&amp;dn=Laid.to.Rest.2009.DVDRIP.XviD-ZEKTORM&amp;tr=udp%3A%2F%2Ftracker.openbittorrent.com%3A80&amp;tr=udp%3A%2F%2Fopen.demonii.com%3A1337&amp;tr=udp%3A%2F%2Ftracker.coppersurfer.tk%3A6969&amp;tr=udp%3A%2F%2Fexodus.desync.com%3A6969","seeders":3,"leechers":0,"uploader":"blowley","files":2,"time":1257790879,"description":"Title                            : Laid to Rest\nYear                             : 2009\nGenre                            : Horror\niMDB URL                         : http://www.imdb.com/title/tt1228933/\n\nComplete name                    : Laid.to.Rest.2009.DVDRIP.XviD-ZEKTORM.avi\nFormat                           : AVI\nFile size                        : 701 MiB\nDuration                         : 1h 25mn\nOverall bit rate                 : 1140 Kbps\n\nVideo\nFormat                           : MPEG-4 Visual\nFormat profile                   : Streaming Video@L1\nCodec ID                         : XVID\nCodec ID/Hint                    : XviD\nDuration                         : 1h 25mn\nBit rate                         : 1026 Kbps\nWidth                            : 720 pixels\nHeight                           : 416 pixels\nDisplay aspect ratio             : 16/9\nFrame rate                       : 25.000 fps\nResolution                       : 24 bits\nColorimetry                      : 4:2:0\nScan type                        : Progressive\nBits/(Pixel*Frame)               : 0.137\nStream size                      : 631 MiB (90%)\nWriting library                  : XviD\n\nAudio\nFormat                           : MPEG Audio\nFormat version                   : Version 1\nFormat profile                   : Layer 3\nCodec ID                         : 55\nCodec ID/Hint                    : MP3\nDuration                         : 1h 25mn\nBit rate mode                    : Variable\nBit rate                         : 102 Kbps\nMinimum bit rate                 : 128 Kbps\nChannel(s)                       : 2 channels\nSampling rate                    : 48.0 KHz\nResolution                       : 16 bits\nStream size                      : 62.4 MiB (9%)\nWriting library                  : LAME3.98r\nEncoding settings                : ABR\n","torrent":{"xt":"urn:btih:db12ae20d695063aa3cd01a2cb7d3f6c6b46d8e3","amp;dn":"Laid.to.Rest.2009.DVDRIP.XviD-ZEKTORM","amp;tr":["udp%3A%2F%2Ftracker.openbittorrent.com%3A80","udp%3A%2F%2Fopen.demonii.com%3A1337","udp%3A%2F%2Ftracker.coppersurfer.tk%3A6969","udp%3A%2F%2Fexodus.desync.com%3A6969"],"infoHash":"db12ae20d695063aa3cd01a2cb7d3f6c6b46d8e3","infoHashBuffer":{"type":"Buffer","data":[219,18,174,32,214,149,6,58,163,205,1,162,203,125,63,108,107,70,216,227]},"announce":[],"urlList":[]}}